<mxfile host="app.diagrams.net" modified="2021-12-04T17:47:04.333Z" agent="5.0 (Windows NT 10.0; Win64; x64) AppleWebKit/537.36 (KHTML, like Gecko) Chrome/96.0.4664.45 Safari/537.36" etag="-bSlVkbN8fiCq6-Tj71X" version="15.8.6" type="github">
  <diagram id="z7f1GwGwnu-_5WVB-e_3" name="Page-1">
    <mxGraphModel dx="1140" dy="641" grid="1" gridSize="10" guides="1" tooltips="1" connect="1" arrows="1" fold="1" page="1" pageScale="1" pageWidth="827" pageHeight="1169" math="0" shadow="0">
      <root>
        <mxCell id="0" />
        <mxCell id="1" parent="0" />
        <mxCell id="pSAToOOF3iRlSpnGywvP-1" value="" style="edgeStyle=orthogonalEdgeStyle;rounded=0;orthogonalLoop=1;jettySize=auto;html=1;" edge="1" parent="1" source="pSAToOOF3iRlSpnGywvP-2" target="pSAToOOF3iRlSpnGywvP-9">
          <mxGeometry relative="1" as="geometry" />
        </mxCell>
        <mxCell id="pSAToOOF3iRlSpnGywvP-2" value="&lt;font style=&quot;font-size: 16px&quot;&gt;send client&lt;/font&gt;" style="rounded=0;whiteSpace=wrap;html=1;" vertex="1" parent="1">
          <mxGeometry x="110" y="140" width="100" height="40" as="geometry" />
        </mxCell>
        <mxCell id="pSAToOOF3iRlSpnGywvP-3" style="edgeStyle=orthogonalEdgeStyle;rounded=0;orthogonalLoop=1;jettySize=auto;html=1;fontSize=16;" edge="1" parent="1" source="pSAToOOF3iRlSpnGywvP-4" target="pSAToOOF3iRlSpnGywvP-6">
          <mxGeometry relative="1" as="geometry" />
        </mxCell>
        <mxCell id="pSAToOOF3iRlSpnGywvP-4" value="&lt;span style=&quot;font-size: 16px&quot;&gt;pack RPCRequest&lt;/span&gt;" style="rounded=0;whiteSpace=wrap;html=1;" vertex="1" parent="1">
          <mxGeometry x="105" y="310" width="110" height="40" as="geometry" />
        </mxCell>
        <mxCell id="pSAToOOF3iRlSpnGywvP-5" value="" style="edgeStyle=orthogonalEdgeStyle;rounded=0;orthogonalLoop=1;jettySize=auto;html=1;" edge="1" parent="1" source="pSAToOOF3iRlSpnGywvP-6" target="pSAToOOF3iRlSpnGywvP-11">
          <mxGeometry relative="1" as="geometry" />
        </mxCell>
        <mxCell id="pSAToOOF3iRlSpnGywvP-6" value="&lt;span style=&quot;font-size: 16px&quot;&gt;unpack&lt;br&gt;RPCRequest&lt;br&gt;&lt;/span&gt;" style="rounded=0;whiteSpace=wrap;html=1;" vertex="1" parent="1">
          <mxGeometry x="320" y="310" width="120" height="40" as="geometry" />
        </mxCell>
        <mxCell id="pSAToOOF3iRlSpnGywvP-7" value="&lt;span style=&quot;font-size: 16px&quot;&gt;on rpc call&lt;/span&gt;" style="rounded=0;whiteSpace=wrap;html=1;" vertex="1" parent="1">
          <mxGeometry x="325" y="140" width="110" height="40" as="geometry" />
        </mxCell>
        <mxCell id="pSAToOOF3iRlSpnGywvP-8" value="" style="edgeStyle=orthogonalEdgeStyle;rounded=0;orthogonalLoop=1;jettySize=auto;html=1;" edge="1" parent="1" source="pSAToOOF3iRlSpnGywvP-9" target="pSAToOOF3iRlSpnGywvP-4">
          <mxGeometry relative="1" as="geometry" />
        </mxCell>
        <mxCell id="pSAToOOF3iRlSpnGywvP-9" value="&lt;span style=&quot;font-size: 16px&quot;&gt;pack args&lt;/span&gt;" style="rounded=0;whiteSpace=wrap;html=1;" vertex="1" parent="1">
          <mxGeometry x="110" y="220" width="100" height="40" as="geometry" />
        </mxCell>
        <mxCell id="pSAToOOF3iRlSpnGywvP-10" value="" style="edgeStyle=orthogonalEdgeStyle;rounded=0;orthogonalLoop=1;jettySize=auto;html=1;" edge="1" parent="1" source="pSAToOOF3iRlSpnGywvP-11" target="pSAToOOF3iRlSpnGywvP-7">
          <mxGeometry relative="1" as="geometry" />
        </mxCell>
        <mxCell id="pSAToOOF3iRlSpnGywvP-11" value="&lt;span style=&quot;font-size: 16px&quot;&gt;unpack args&lt;/span&gt;" style="rounded=0;whiteSpace=wrap;html=1;" vertex="1" parent="1">
          <mxGeometry x="330" y="220" width="100" height="40" as="geometry" />
        </mxCell>
        <mxCell id="pSAToOOF3iRlSpnGywvP-12" value="" style="edgeStyle=orthogonalEdgeStyle;rounded=0;orthogonalLoop=1;jettySize=auto;html=1;" edge="1" parent="1" source="pSAToOOF3iRlSpnGywvP-13" target="pSAToOOF3iRlSpnGywvP-20">
          <mxGeometry relative="1" as="geometry" />
        </mxCell>
        <mxCell id="pSAToOOF3iRlSpnGywvP-13" value="&lt;span style=&quot;font-size: 16px&quot;&gt;rpc response&lt;/span&gt;" style="rounded=0;whiteSpace=wrap;html=1;" vertex="1" parent="1">
          <mxGeometry x="485" y="140" width="100" height="40" as="geometry" />
        </mxCell>
        <mxCell id="pSAToOOF3iRlSpnGywvP-14" style="edgeStyle=orthogonalEdgeStyle;rounded=0;orthogonalLoop=1;jettySize=auto;html=1;fontSize=16;" edge="1" parent="1" source="pSAToOOF3iRlSpnGywvP-15" target="pSAToOOF3iRlSpnGywvP-17">
          <mxGeometry relative="1" as="geometry" />
        </mxCell>
        <mxCell id="pSAToOOF3iRlSpnGywvP-15" value="&lt;span style=&quot;font-size: 16px&quot;&gt;pack RPCResponse&lt;/span&gt;" style="rounded=0;whiteSpace=wrap;html=1;" vertex="1" parent="1">
          <mxGeometry x="480" y="310" width="110" height="40" as="geometry" />
        </mxCell>
        <mxCell id="pSAToOOF3iRlSpnGywvP-16" value="" style="edgeStyle=orthogonalEdgeStyle;rounded=0;orthogonalLoop=1;jettySize=auto;html=1;" edge="1" parent="1" source="pSAToOOF3iRlSpnGywvP-17" target="pSAToOOF3iRlSpnGywvP-22">
          <mxGeometry relative="1" as="geometry" />
        </mxCell>
        <mxCell id="pSAToOOF3iRlSpnGywvP-17" value="&lt;span style=&quot;font-size: 16px&quot;&gt;unpack RPCResponse&lt;/span&gt;" style="rounded=0;whiteSpace=wrap;html=1;" vertex="1" parent="1">
          <mxGeometry x="680" y="310" width="120" height="40" as="geometry" />
        </mxCell>
        <mxCell id="pSAToOOF3iRlSpnGywvP-18" value="&lt;span style=&quot;font-size: 16px&quot;&gt;on rpc call&lt;/span&gt;" style="rounded=0;whiteSpace=wrap;html=1;" vertex="1" parent="1">
          <mxGeometry x="685" y="140" width="110" height="40" as="geometry" />
        </mxCell>
        <mxCell id="pSAToOOF3iRlSpnGywvP-19" value="" style="edgeStyle=orthogonalEdgeStyle;rounded=0;orthogonalLoop=1;jettySize=auto;html=1;" edge="1" parent="1" source="pSAToOOF3iRlSpnGywvP-20" target="pSAToOOF3iRlSpnGywvP-15">
          <mxGeometry relative="1" as="geometry" />
        </mxCell>
        <mxCell id="pSAToOOF3iRlSpnGywvP-20" value="&lt;span style=&quot;font-size: 16px&quot;&gt;pack &lt;br&gt;response data&lt;/span&gt;" style="rounded=0;whiteSpace=wrap;html=1;" vertex="1" parent="1">
          <mxGeometry x="480" y="210" width="110" height="50" as="geometry" />
        </mxCell>
        <mxCell id="pSAToOOF3iRlSpnGywvP-21" value="" style="edgeStyle=orthogonalEdgeStyle;rounded=0;orthogonalLoop=1;jettySize=auto;html=1;" edge="1" parent="1" source="pSAToOOF3iRlSpnGywvP-22" target="pSAToOOF3iRlSpnGywvP-18">
          <mxGeometry relative="1" as="geometry" />
        </mxCell>
        <mxCell id="pSAToOOF3iRlSpnGywvP-22" value="&lt;span style=&quot;font-size: 16px&quot;&gt;unpack response data&lt;/span&gt;" style="rounded=0;whiteSpace=wrap;html=1;" vertex="1" parent="1">
          <mxGeometry x="687.5" y="210" width="105" height="50" as="geometry" />
        </mxCell>
        <mxCell id="pSAToOOF3iRlSpnGywvP-23" value="" style="endArrow=none;dashed=1;html=1;dashPattern=1 3;strokeWidth=2;rounded=0;exitX=1;exitY=0.5;exitDx=0;exitDy=0;entryX=0;entryY=0.5;entryDx=0;entryDy=0;" edge="1" parent="1" source="pSAToOOF3iRlSpnGywvP-9" target="pSAToOOF3iRlSpnGywvP-11">
          <mxGeometry width="50" height="50" relative="1" as="geometry">
            <mxPoint x="100" y="490" as="sourcePoint" />
            <mxPoint x="150" y="440" as="targetPoint" />
          </mxGeometry>
        </mxCell>
        <mxCell id="pSAToOOF3iRlSpnGywvP-24" value="" style="endArrow=none;dashed=1;html=1;dashPattern=1 3;strokeWidth=2;rounded=0;exitX=1;exitY=0.5;exitDx=0;exitDy=0;entryX=0;entryY=0.5;entryDx=0;entryDy=0;" edge="1" parent="1" source="pSAToOOF3iRlSpnGywvP-20" target="pSAToOOF3iRlSpnGywvP-22">
          <mxGeometry width="50" height="50" relative="1" as="geometry">
            <mxPoint x="220" y="250" as="sourcePoint" />
            <mxPoint x="340" y="250" as="targetPoint" />
          </mxGeometry>
        </mxCell>
        <mxCell id="pSAToOOF3iRlSpnGywvP-25" value="&lt;font style=&quot;font-size: 16px&quot;&gt;msgpack&lt;/font&gt;" style="text;html=1;resizable=0;autosize=1;align=center;verticalAlign=middle;points=[];fillColor=none;strokeColor=none;rounded=0;" vertex="1" parent="1">
          <mxGeometry x="10" y="230" width="80" height="20" as="geometry" />
        </mxCell>
        <mxCell id="pSAToOOF3iRlSpnGywvP-26" value="&lt;span style=&quot;font-size: 16px&quot;&gt;protobuf&lt;/span&gt;" style="text;html=1;resizable=0;autosize=1;align=center;verticalAlign=middle;points=[];fillColor=none;strokeColor=none;rounded=0;" vertex="1" parent="1">
          <mxGeometry x="10" y="320" width="70" height="20" as="geometry" />
        </mxCell>
      </root>
    </mxGraphModel>
  </diagram>
</mxfile>
